#!OML:ASF E:\Steps\Project 1\Capture day 1\Session 2\Subject.ASF
:FULLY-SPECIFIED
:DEGREES
79
root -1.07505 19.6514 20.5563 -152.914 -2.26199 177.055
lowerback -28.4433 -2.38138 -8.00561
upperback -1.8154 -1.27896 0.0376201
thorax 13.1413 -1.33067 3.84391
lowerneck -2.94237 -3.41276 -1.73459
upperneck 20.6258 -7.03381 4.00869
head 6.9754 -3.81444 1.02092
rclavicle -1.04859e-014 7.15625e-015
rhumerus -38.3197 -27.4764 -69.7055
rradius 21.764
rwrist 7.97745
rhand -6.58379 -56.8035
rfingers 7.12502
rthumb 19.2711 -85.8687
lclavicle -1.04859e-014 7.15625e-015
lhumerus -30.2714 9.43046 79.4502
lradius 18.5848
lwrist -5.8132
lhand -22.3251 -13.8918
lfingers 7.12502
lthumb 4.09487 16.0486
rfemur -25.7717 5.11149 18.6184
rtibia 8.53846
rfoot -18.703 -1.78941
rtoes -5.89784
lfemur -25.8707 -8.95562 -23.2117
ltibia 9.99958
lfoot -9.13084 0.03757
ltoes -27.5117
80
root -1.08295 19.6491 20.55 -153.034 -2.23624 177.073
lowerback -28.4612 -2.3174 -7.93498
upperback -1.71812 -1.19022 -0.0134222
thorax 13.2489 -1.28538 3.78445
lowerneck -3.36172 -3.36627 -1.52468
upperneck 21.2322 -7.00215 3.65538
head 7.22691 -3.81225 0.85405
rclavicle 8.44835e-015 3.97569e-015
rhumerus -38.2858 -27.6066 -69.731
rradius 21.7315
rwrist 7.83206
rhand -6.65928 -56.6794
rfingers 7.12502
rthumb 19.1985 -85.7518
lclavicle 8.44835e-015 3.97569e-015
lhumerus -30.2398 9.37462 79.3759
lradius 18.5422
lwrist -5.93301
lhand -22.4282 -13.6791
lfingers 7.12502
lthumb 3.99526 16.2632
rfemur -25.6534 5.26495 18.5678
rtibia 8.61571
rfoot -18.8164 -1.91566
rtoes -6.37811
lfemur -25.7327 -9.16801 -23.2073
ltibia 10.0495
lfoot -9.20741 0.258963
ltoes -27.2445
81
root -1.08789 19.6468 20.5476 -153.073 -2.25113 177.102
lowerback -28.4869 -2.31079 -7.92135
upperback -1.66949 -1.1759 0.00569202
thorax 13.3158 -1.2788 3.80315
lowerneck -3.41185 -3.33157 -1.48899
upperneck 21.3258 -6.96171 3.60943
head 7.2624 -3.79465 0.833519
rclavicle -1.22998e-014 -2.04748e-014
rhumerus -38.2515 -27.3394 -69.8825
rradius 21.8119
rwrist 7.31768
rhand -6.58144 -56.766
rfingers 7.12502
rthumb 19.2733 -85.8309
lclavicle -1.22998e-014 -2.04748e-014
lhumerus -30.2426 9.35245 79.368
lradius 18.4861
lwrist -6.13401
lhand -22.7246 -13.638
lfingers 7.12502
lthumb 3.7091 16.3095
rfemur -25.6519 5.31192 18.5825
rtibia 8.71446
rfoot -18.8865 -1.97799
rtoes -6.30148
lfemur -25.745 -9.31445 -23.169
ltibia 10.2132
lfoot -9.27312 0.293761
ltoes -26.3473
82
root -1.09054 19.6458 20.549 -153.106 -2.22152 177.106
lowerback -28.4346 -2.35102 -7.98024
upperback -1.65167 -1.21614 0.0704525
thorax 13.3201 -1.30014 3.89164
lowerneck -3.10032 -3.28601 -1.53528
upperneck 21.0502 -6.86033 3.60297
head 7.11506 -3.75389 0.859654
rclavicle 9.36773e-015 -3.97569e-016
rhumerus -38.219 -26.928 -70.0829
rradius 21.9427
rwrist 6.61263
rhand -7.11657 -56.2401
rfingers 7.12502
rthumb 18.7587 -85.3556
lclavicle 9.36773e-015 -3.97569e-016
lhumerus -30.292 9.39827 79.4069
lradius 18.4928
lwrist -6.07293
lhand -22.7393 -13.7847
lfingers 7.12502
lthumb 3.69483 16.163
rfemur -25.7308 5.30499 18.5836
rtibia 8.91543
rfoot -18.9623 -2.00374
rtoes -6.43026
lfemur -25.8097 -9.41097 -23.1561
ltibia 10.4287
lfoot -9.3364 0.352906
ltoes -26.2135
83
root -1.09212 19.6448 20.552 -153.194 -2.17563 177.079
lowerback -28.2929 -2.36775 -8.0527
upperback -1.61831 -1.21809 0.0863756
thorax 13.295 -1.3015 3.95149
lowerneck -2.81109 -3.31625 -1.56248
upperneck 20.8045 -6.88011 3.62007
head 6.986 -3.76845 0.879807
rclavicle 4.69629e-015 1.27222e-014
rhumerus -38.2512 -27.0589 -69.9632
rradius 22.0617
rwrist 7.27334
rhand -6.84103 -56.1285
rfingers 7.12502
rthumb 19.0237 -85.2182
lclavicle 4.69629e-015 1.27222e-014
lhumerus -30.3219 9.36253 79.4213
lradius 18.5476
lwrist -5.94756
lhand -22.5951 -13.8872
lfingers 7.12502
lthumb 3.83413 16.0581
rfemur -25.7891 5.232 18.5582
rtibia 9.17416
rfoot -19.0765 -1.90437
rtoes -6.67159
lfemur -25.8545 -9.48231 -23.1877
ltibia 10.6971
lfoot -9.45738 0.446247
ltoes -26.6821
84
root -1.09445 19.6438 20.5527 -153.278 -2.18788 177.041
lowerback -28.2043 -2.39191 -8.11258
upperback -1.54835 -1.22192 0.0908812
thorax 13.3362 -1.30433 3.99025
lowerneck -2.88905 -3.34444 -1.62666
upperneck 20.951 -6.95779 3.69654
head 7.05463 -3.80751 0.9045
rclavicle -1.78906e-015 7.95139e-015
rhumerus -38.1351 -27.1984 -69.8975
rradius 21.951
rwrist 7.4772
rhand -7.29786 -55.3026
rfingers 7.12502
rthumb 18.5843 -84.4349
lclavicle -1.78906e-015 7.95139e-015
lhumerus -30.3026 9.24598 79.442
lradius 18.6026
lwrist -5.86532
lhand -22.5101 -13.8345
lfingers 7.12502
lthumb 3.91618 16.1093
rfemur -25.7089 5.55779 18.4343
rtibia 9.20126
rfoot -19.1479 -2.23238
rtoes -6.79798
lfemur -25.8498 -9.51065 -23.249
ltibia 10.8938
lfoot -9.6026 0.435016
ltoes -26.4746
85
root -1.09753 19.6434 20.5512 -153.293 -2.20833 177.083
lowerback -28.2243 -2.39613 -8.0863
upperback -1.49346 -1.22426 0.101757
thorax 13.4095 -1.30458 3.98705
lowerneck -3.17991 -3.32243 -1.57134
upperneck 21.404 -7.0043 3.67439
head 7.25316 -3.83278 0.868912
rclavicle 9.69075e-016 1.63003e-014
rhumerus -38.0777 -27.2991 -69.8357
rradius 21.8132
rwrist 7.44443
rhand -7.36092 -54.7895
rfingers 7.12502
rthumb 18.5237 -83.9275
lclavicle 9.69075e-016 1.63003e-014
lhumerus -30.3268 9.10626 79.4279
lradius 18.6776
lwrist -5.83213
lhand -22.4267 -13.8116
lfingers 7.12502
lthumb 3.99676 16.1307
rfemur -25.8333 5.54534 18.488
rtibia 9.50221
rfoot -19.2645 -2.19354
rtoes -6.49808
lfemur -25.9038 -9.50871 -23.2174
ltibia 11.0636
lfoot -9.70125 0.41388
ltoes -26.0307
86
root -1.10032 19.644 20.5509 -153.278 -2.21476 177.172
lowerback -28.2388 -2.34044 -8.01353
upperback -1.48233 -1.16713 0.0683565
thorax 13.4205 -1.27387 3.93297
lowerneck -3.20876 -3.35997 -1.37608
upperneck 21.5429 -7.09817 3.61818
head 7.29863 -3.87275 0.80779
rclavicle -1.35671e-014 -2.48481e-014
rhumerus -38.2165 -27.3585 -69.8751
rradius 21.9334
rwrist 7.42954
rhand -7.15018 -54.9708
rfingers 7.12502
rthumb 18.7264 -84.0894
lclavicle -1.35671e-014 -2.48481e-014
lhumerus -30.346 8.99399 79.3138
lradius 18.6582
lwrist -6.01512
lhand -22.3262 -13.8651
lfingers 7.12502
lthumb 4.09382 16.0753
rfemur -26.0117 5.37649 18.628
rtibia 9.83746
rfoot -19.3772 -1.97967
rtoes -6.16476
lfemur -26.0615 -9.49649 -23.1144
ltibia 11.3123
lfoot -9.81311 0.412913
ltoes -26.01
87
root -1.10177 19.6455 20.5538 -153.294 -2.20718 177.225
lowerback -28.1427 -2.27659 -7.98341
upperback -1.50365 -1.09765 0.0241515
thorax 13.3414 -1.23669 3.8974
lowerneck -3.09038 -3.43174 -1.25801
upperneck 21.4528 -7.20661 3.62396
head 7.24786 -3.91819 0.786584
rclavicle -3.97569e-016 1.0138e-014
rhumerus -38.2883 -27.3558 -69.9781
rradius 21.9783
rwrist 7.48591
rhand -7.12869 -55.5386
rfingers 7.12502
rthumb 18.747 -84.6552
lclavicle -3.97569e-016 1.0138e-014
lhumerus -30.394 8.82377 79.2565
lradius 18.6304
lwrist -6.10346
lhand -22.3385 -13.7905
lfingers 7.12502
lthumb 4.08188 16.1501
rfemur -26.1296 5.28448 18.7161
rtibia 10.0775
rfoot -19.5022 -1.90879
rtoes -6.78217
lfemur -26.2009 -9.45639 -23.041
ltibia 11.5388
lfoot -9.98753 0.383489
ltoes -25.811
88
root -1.10183 19.6462 20.5567 -153.296 -2.21714 177.292
lowerback -28.0652 -2.27467 -7.97707
upperback -1.5098 -1.10513 0.048738
thorax 13.3005 -1.23773 3.91999
lowerneck -3.12487 -3.48417 -1.16117
upperneck 21.4928 -7.26781 3.49278
head 7.26082 -3.94996 0.722133
rclavicle 2.28602e-015 -3.77691e-015
rhumerus -38.1809 -27.2916 -70.0414
rradius 21.8415
rwrist 7.50413
rhand -7.13404 -55.736
rfingers 7.12502
rthumb 18.7419 -84.8531
lclavicle 2.28602e-015 -3.77691e-015
lhumerus -30.4829 8.83656 79.2431
lradius 18.6781
lwrist -6.16028
lhand -22.3763 -13.571
lfingers 7.12502
lthumb 4.04537 16.3704
rfemur -26.2611 5.39187 18.78
rtibia 10.2919
rfoot -19.6173 -2.06853
rtoes -7.21792
lfemur -26.3192 -9.3711 -22.9504
ltibia 11.7142
lfoot -10.1011 0.265086
ltoes -24.2577
89
root -1.10267 19.6458 20.5557 -153.269 -2.25218 177.359
lowerback -28.0748 -2.32645 -8.02913
upperback -1.48945 -1.16132 0.137725
thorax 13.3389 -1.2682 4.02373
lowerneck -3.19981 -3.50574 -1.18236
upperneck 21.5382 -7.29643 3.47545
head 7.28984 -3.96469 0.714985
rclavicle -3.926e-015 -1.15295e-014
rhumerus -38.1615 -27.0949 -70.1075
rradius 21.9712
rwrist 7.27118
rhand -7.28009 -55.7792
rfingers 7.12502
rthumb 18.6014 -84.9099
lclavicle -3.926e-015 -1.15295e-014
lhumerus -30.5349 8.98266 79.2503
lradius 18.6801
lwrist -6.31009
lhand -22.385 -13.4905
lfingers 7.12502
lthumb 4.03702 16.451
rfemur -26.4692 5.35678 18.8794
rtibia 10.6268
rfoot -19.7551 -2.11038
rtoes -7.30794
lfemur -26.4693 -9.35398 -22.8637
ltibia 11.9613
lfoot -10.12 0.211759
ltoes -22.9521
